<?xml version="1.0" encoding="iso-8859-1"?>
<!-- Uploaded to: SVG Repo, www.svgrepo.com, Generator: SVG Repo Mixer Tools -->
<svg height="800px" width="800px" version="1.1" id="Layer_1" xmlns="http://www.w3.org/2000/svg" xmlns:xlink="http://www.w3.org/1999/xlink" 
	 viewBox="0 0 512 512" xml:space="preserve">
<circle style="fill:#5A6B96;" cx="256" cy="256" r="245.106"/>
<path style="fill:#EFEFEF;" d="M256,457.532c-111.125,0-201.532-90.406-201.532-201.532S144.875,54.468,256,54.468
	S457.532,144.875,457.532,256S367.125,457.532,256,457.532z"/>
<path style="fill:#FF7D46;" d="M457.536,256c0,55.557-22.604,105.951-59.098,142.434l-53.891-53.891
	c22.681-22.681,36.733-54.011,36.733-88.543s-14.053-65.863-36.733-88.543l53.891-53.891
	C434.932,150.049,457.536,200.443,457.536,256z"/>
<path style="fill:#FBC640;" d="M398.438,113.566l-53.891,53.891c-22.681-22.681-54.011-36.733-88.543-36.733
	c-34.544,0-65.863,14.053-88.543,36.733l-53.891-53.891c36.483-36.494,86.877-59.098,142.434-59.098S361.956,77.072,398.438,113.566
	z"/>
<path style="fill:#30C9B0;" d="M130.728,256c0,34.533,14.053,65.863,36.733,88.543l-53.891,53.891
	C77.077,361.951,54.472,311.557,54.472,256s22.604-105.951,59.098-142.434l53.891,53.891
	C144.781,190.137,130.728,221.467,130.728,256z"/>
<path style="fill:#EFEFEF;" d="M246.799,204.924c24.062-0.421,43.908,18.746,44.328,42.808c0.42,24.062-18.746,43.908-42.808,44.328
	S56.651,251.824,56.651,251.824S222.737,205.344,246.799,204.924z"/>
<g>
	<path style="fill:#231F20;" d="M437.019,74.981C388.668,26.629,324.38,0,256,0S123.332,26.629,74.981,74.981
		C26.628,123.333,0,187.62,0,256s26.628,132.668,74.981,181.019C123.332,485.372,187.62,512,256,512s132.668-26.628,181.019-74.981
		C485.372,388.668,512,324.38,512,256S485.372,123.333,437.019,74.981z M256,490.213C126.855,490.213,21.787,385.145,21.787,256
		S126.855,21.787,256,21.787S490.213,126.855,490.213,256S385.145,490.213,256,490.213z"/>
	<path style="fill:#231F20;" d="M340.4,389.913c-2.858-5.293-9.467-7.266-14.762-4.409c-21.271,11.488-45.352,17.559-69.639,17.559
		c-6.017,0-10.894,4.877-10.894,10.894c0,6.017,4.877,10.894,10.894,10.894c27.89,0,55.551-6.976,79.992-20.176
		C341.286,401.816,343.259,395.207,340.4,389.913z"/>
	<path style="fill:#231F20;" d="M205.376,394.086c-0.881-0.325-1.758-0.657-2.632-0.997c-5.606-2.185-11.921,0.585-14.107,6.191
		c-2.186,5.606,0.586,11.921,6.191,14.107c1.003,0.391,2.012,0.773,3.024,1.146c1.242,0.456,2.512,0.673,3.762,0.673
		c4.435,0,8.603-2.73,10.225-7.134C213.916,402.425,211.022,396.164,205.376,394.086z"/>
	<path style="fill:#231F20;" d="M468.43,256c0-56.662-22.122-109.982-62.29-150.138c-0.002-0.002-0.005-0.004-0.008-0.008
		c-40.155-40.161-93.471-62.28-150.128-62.28c-56.66,0-109.979,22.121-150.135,62.286c0,0,0,0.001-0.001,0.001l-0.001,0.001
		l-0.001,0.001l0,0C65.699,146.021,43.579,199.34,43.579,256s22.121,109.979,62.286,150.135l-0.073,0.073
		c82.825,82.825,217.59,82.825,300.415,0l-0.069-0.069c0,0,0.001,0,0.001-0.001C446.309,365.982,468.43,312.662,468.43,256z
		 M398.226,382.815l-38.572-38.572c21.046-24.627,32.522-55.569,32.522-88.243s-11.474-63.614-32.521-88.243l19.393-19.394
		l19.179-19.178c31.303,34.989,48.417,79.611,48.417,126.815S429.529,347.826,398.226,382.815z M256.004,65.362
		c47.204,0,91.826,17.113,126.815,48.417l-38.572,38.572c-24.626-21.046-55.568-32.521-88.243-32.521s-63.615,11.474-88.243,32.522
		l-38.572-38.572C164.179,82.476,208.8,65.362,256.004,65.362z M246.99,215.816c18.049-0.358,32.93,14.089,33.246,32.106
		c0.314,18.018-14.089,32.931-32.106,33.246c-0.1,0.001-0.202,0.002-0.308,0.002c-14.24,0-85.511-15.615-147.381-30.111
		C162.228,234.289,233.507,216.051,246.99,215.816z M121.676,278.345c4.002,24.308,14.504,46.97,30.68,65.898l-38.572,38.572
		c-29.267-32.711-46.126-73.844-48.197-117.631C78.218,268.211,98.751,273.086,121.676,278.345z M66.238,237.851
		c3.806-40.422,20.287-78.198,47.546-108.666l38.572,38.572c-13.594,15.907-23.173,34.453-28.267,54.394
		C100.686,228.369,79.471,234.189,66.238,237.851z M129.13,398.283l46.035-46.035c2.043-2.043,3.191-4.814,3.191-7.703
		s-1.148-5.66-3.191-7.703c-14.937-14.936-25.212-33.257-30.157-53.204c43.938,9.838,89.747,19.321,103.057,19.32
		c0.153,0,0.303-0.001,0.447-0.003c30.029-0.524,54.032-25.382,53.508-55.411c-0.523-30.028-25.376-53.992-55.409-53.509l0,0
		c-12.214,0.214-55.187,10.572-97.641,21.585c5.666-14.995,14.504-28.763,26.197-40.457c21.627-21.631,50.337-33.544,80.837-33.544
		s59.21,11.912,80.84,33.543c0.001,0.001,0.003,0.002,0.004,0.004c21.627,21.63,33.538,50.338,33.538,80.836
		c0,30.5-11.913,59.21-33.543,80.84c-4.254,4.254-4.254,11.152,0,15.406l46.031,46.032
		C310.807,462.626,201.202,462.627,129.13,398.283z"/>
</g>
</svg>